<?xml version="1.0" standalone="no"?>
<!DOCTYPE svg PUBLIC "-//W3C//DTD SVG 20010904//EN"
 "http://www.w3.org/TR/2001/REC-SVG-20010904/DTD/svg10.dtd">
<svg version="1.0" xmlns="http://www.w3.org/2000/svg"
 width="4500.000000pt" height="4500.000000pt" viewBox="0 0 4500.000000 4500.000000"
 preserveAspectRatio="xMidYMid meet">

<g transform="translate(0.000000,4500.000000) scale(0.100000,-0.100000)"
fill="#000000" stroke="none">
<path d="M17110 22155 l0 -1375 290 0 290 0 0 659 0 658 68 22 c199 62 352 51
429 -31 36 -38 71 -128 82 -211 7 -47 11 -283 11 -588 l0 -509 290 0 290 0 0
553 c0 568 -5 666 -41 812 -62 247 -220 418 -445 480 -90 25 -290 31 -399 12
-81 -15 -222 -52 -267 -72 -17 -7 -18 20 -18 479 l0 486 -290 0 -290 0 0
-1375z"/>
<path d="M11600 23110 l0 -270 280 0 280 0 0 -279 0 -279 98 -60 c143 -89 150
-97 27 -37 -60 30 -113 54 -117 55 -5 0 -8 -328 -8 -730 l0 -730 295 0 295 0
0 1030 0 1030 280 0 280 0 0 270 0 270 -855 0 -855 0 0 -270z"/>
<path d="M14054 22649 c-142 -24 -310 -97 -422 -183 -162 -124 -261 -280 -314
-493 -30 -120 -32 -388 -4 -508 85 -368 324 -600 711 -690 180 -41 444 -44
637 -6 178 36 458 144 458 178 0 12 -129 464 -134 470 -1 2 -50 -21 -109 -51
-364 -182 -718 -181 -902 2 -45 45 -87 119 -101 175 l-6 27 655 0 654 0 7 38
c3 20 6 85 6 143 0 468 -262 799 -705 890 -97 20 -333 25 -431 8z m342 -480
c79 -30 144 -86 182 -156 54 -101 83 -93 -328 -93 -281 0 -360 3 -360 13 0 24
59 112 102 154 49 47 128 90 190 103 58 12 150 3 214 -21z"/>
<path d="M16223 22645 c-353 -64 -615 -280 -733 -604 -126 -345 -48 -739 198
-1002 124 -132 263 -211 471 -267 87 -23 115 -25 286 -26 186 0 272 10 356 42
l27 11 -57 228 c-51 202 -60 228 -77 225 -218 -30 -307 -25 -412 23 -160 73
-253 232 -253 430 0 235 136 411 351 456 47 10 199 8 309 -3 24 -3 26 2 81
230 32 128 54 235 50 237 -4 2 -49 11 -101 20 -115 18 -394 19 -496 0z"/>
<path d="M10710 21585 l0 -805 290 0 290 0 0 805 0 805 -290 0 -290 0 0 -805z"/>
</g>
</svg>
