<svg width="33" height="32" viewBox="0 0 33 32" fill="none" xmlns="http://www.w3.org/2000/svg" class="MuiSvgIcon-root MuiSvgIcon-fontSizeMedium css-vubbuv" focusable="false" aria-hidden="true"><path d="M28.5001 16C28.5001 16.2652 28.3947 16.5196 28.2072 16.7071C28.0196 16.8947 27.7653 17 27.5001 17H7.9138L15.2076 24.2925C15.3005 24.3854 15.3742 24.4957 15.4244 24.6171C15.4747 24.7385 15.5006 24.8686 15.5006 25C15.5006 25.1314 15.4747 25.2615 15.4244 25.3829C15.3742 25.5043 15.3005 25.6146 15.2076 25.7075C15.1146 25.8004 15.0043 25.8741 14.883 25.9244C14.7616 25.9747 14.6314 26.0006 14.5001 26.0006C14.3687 26.0006 14.2386 25.9747 14.1172 25.9244C13.9958 25.8741 13.8855 25.8004 13.7926 25.7075L4.79255 16.7075C4.69958 16.6146 4.62582 16.5043 4.57549 16.3829C4.52517 16.2615 4.49927 16.1314 4.49927 16C4.49927 15.8686 4.52517 15.7385 4.57549 15.6171C4.62582 15.4957 4.69958 15.3854 4.79255 15.2925L13.7926 6.29251C13.9802 6.10487 14.2347 5.99945 14.5001 5.99945C14.7654 5.99945 15.0199 6.10487 15.2076 6.29251C15.3952 6.48015 15.5006 6.73464 15.5006 7.00001C15.5006 7.26537 15.3952 7.51987 15.2076 7.70751L7.9138 15H27.5001C27.7653 15 28.0196 15.1054 28.2072 15.2929C28.3947 15.4804 28.5001 15.7348 28.5001 16Z" fill="#1D2939"></path></svg>