<svg width="20" height="20" viewBox="0 0 20 20" fill="none" xmlns="http://www.w3.org/2000/svg">
<path d="M19.6503 17.875C18.2225 15.4065 16.0222 13.6365 13.4544 12.7975C14.7246 12.0414 15.7114 10.8892 16.2634 9.51792C16.8153 8.14665 16.9019 6.63211 16.5098 5.20688C16.1177 3.78165 15.2685 2.52454 14.0928 1.6286C12.9171 0.732664 11.4798 0.247437 10.0016 0.247437C8.52341 0.247437 7.08609 0.732664 5.91037 1.6286C4.73465 2.52454 3.88553 3.78165 3.49342 5.20688C3.1013 6.63211 3.18787 8.14665 3.73983 9.51792C4.2918 10.8892 5.27863 12.0414 6.54878 12.7975C3.98097 13.6356 1.78066 15.4056 0.352847 17.875C0.300486 17.9604 0.265756 18.0554 0.250705 18.1544C0.235654 18.2534 0.240587 18.3544 0.265213 18.4515C0.289839 18.5486 0.33366 18.6397 0.394089 18.7196C0.454518 18.7995 0.530332 18.8664 0.617057 18.9165C0.703783 18.9666 0.799663 18.9988 0.899041 19.0113C0.99842 19.0237 1.09928 19.0161 1.19568 18.989C1.29208 18.9618 1.38205 18.9156 1.4603 18.8531C1.53855 18.7906 1.60349 18.713 1.65128 18.625C3.41753 15.5725 6.53941 13.75 10.0016 13.75C13.4638 13.75 16.5857 15.5725 18.3519 18.625C18.3997 18.713 18.4646 18.7906 18.5429 18.8531C18.6211 18.9156 18.7111 18.9618 18.8075 18.989C18.9039 19.0161 19.0048 19.0237 19.1042 19.0113C19.2035 18.9988 19.2994 18.9666 19.3861 18.9165C19.4729 18.8664 19.5487 18.7995 19.6091 18.7196C19.6695 18.6397 19.7134 18.5486 19.738 18.4515C19.7626 18.3544 19.7675 18.2534 19.7525 18.1544C19.7374 18.0554 19.7027 17.9604 19.6503 17.875ZM4.7516 6.99999C4.7516 5.96164 5.0595 4.9466 5.63638 4.08324C6.21326 3.21989 7.0332 2.54698 7.99251 2.14962C8.95182 1.75226 10.0074 1.64829 11.0258 1.85086C12.0442 2.05344 12.9797 2.55345 13.7139 3.28768C14.4481 4.0219 14.9481 4.95736 15.1507 5.97576C15.3533 6.99416 15.2493 8.04976 14.852 9.00908C14.4546 9.96839 13.7817 10.7883 12.9183 11.3652C12.055 11.9421 11.0399 12.25 10.0016 12.25C8.60967 12.2485 7.27517 11.6949 6.29093 10.7107C5.30669 9.72641 4.75309 8.39192 4.7516 6.99999Z" fill="#161616"/>
</svg>
